<svg xmlns="http://www.w3.org/2000/svg" viewBox="0 0 320 320" role="img" aria-labelledby="title desc">
  <title id="title">Doctor portrait 04</title>
  <desc id="desc">Illustrated doctor portrait placeholder</desc>
  <defs>
    <linearGradient id="bg4" x1="0" x2="1" y1="0" y2="1">
      <stop offset="0%" stop-color="#fde7ea"/>
      <stop offset="100%" stop-color="#f8c8d3"/>
    </linearGradient>
  </defs>
  <rect width="320" height="320" fill="url(#bg4)" rx="36"/>
  <circle cx="160" cy="120" r="58" fill="#f5ceb0"/>
  <path d="M101 119c2-44 29-70 59-70 39 0 62 28 62 70-17-15-38-23-62-23-24 0-45 8-59 23z" fill="#4c2b34"/>
  <path d="M79 275c8-52 45-85 81-85 36 0 73 33 81 85" fill="#ffffff"/>
  <circle cx="160" cy="228" r="14" fill="#e11d48"/>
  <rect x="152" y="208" width="16" height="62" rx="8" fill="#e11d48"/>
  <circle cx="85" cy="72" r="17" fill="#ffffff" opacity="0.34"/>
</svg>
