<svg xmlns="http://www.w3.org/2000/svg" viewBox="0 0 320 320" role="img" aria-labelledby="title desc">
  <title id="title">Doctor portrait 01</title>
  <desc id="desc">Illustrated doctor portrait placeholder</desc>
  <defs>
    <linearGradient id="bg1" x1="0" x2="1" y1="0" y2="1">
      <stop offset="0%" stop-color="#d9f4ee"/>
      <stop offset="100%" stop-color="#b8ece2"/>
    </linearGradient>
  </defs>
  <rect width="320" height="320" fill="url(#bg1)" rx="36"/>
  <circle cx="160" cy="118" r="58" fill="#f5c7a5"/>
  <path d="M98 111c6-40 33-63 67-63s61 23 67 63c-19-14-37-21-67-21s-48 7-67 21z" fill="#24404d"/>
  <path d="M82 274c8-52 43-85 78-85s70 33 78 85" fill="#ffffff"/>
  <path d="M160 196l18 31-18 16-18-16 18-31z" fill="#0f766e"/>
  <rect x="148" y="208" width="24" height="62" rx="12" fill="#0f766e"/>
  <circle cx="212" cy="92" r="20" fill="#ffffff" opacity="0.4"/>
</svg>
